<svg width="63" height="67" xmlns="http://www.w3.org/2000/svg">

 <g>
  <title>background</title>
  <rect fill="none" id="canvas_background" height="21" width="21" y="-1" x="-1"/>
 </g>
 <g>
  <title>Layer 1</title>
  <rect id="svg_2" height="42.076504" width="34.061931" y="12.461748" x="14.833334" stroke-opacity="null" stroke-width="null" stroke="null" fill="#ffffff"/>
  <path id="svg_1" fill-rule="evenodd" clip-rule="evenodd" fill="#444444" d="m19.542999,34.568001c-0.053999,0 0.592001,1.367001 0.610001,1.367001c1.41,2.515999 4.128,4.079998 8.712999,4.513c-0.653999,0.487999 -1.439999,1.414997 -1.549,2.485996c-0.823,0.522003 -2.477999,0.695004 -3.764,0.297001c-1.802999,-0.559998 -2.493,-4.066998 -5.191999,-3.566998c-0.584,0.107998 -0.468,0.486 0.037001,0.808998c0.823,0.521999 1.597,1.178001 2.193998,2.570999c0.459002,1.07 1.423,2.982002 4.473001,2.982002c1.209999,0 2.057999,-0.144001 2.057999,-0.144001s0.023001,2.730999 0.023001,3.792999c0,1.225002 -1.681999,1.57 -1.681999,2.159c0,0.232002 0.556999,0.255001 1.004,0.255001c0.883999,0 2.723,-0.726002 2.723,-1.998001c0,-1.010998 0.017,-4.410999 0.017,-5.006001c0,-1.299999 0.709,-1.711998 0.709,-1.711998s0.088001,6.940998 -0.169001,7.871998c-0.302,1.094002 -0.847,0.938 -0.847,1.427002c0,0.725998 2.214003,0.177998 2.948,-1.416c0.567001,-1.240002 0.319,-8.049999 0.319,-8.049999l0.605,-0.012001c0,0 0.034,3.117001 0.013,4.542c-0.021,1.476002 -0.121998,3.341999 0.77,4.222c0.585999,0.577999 2.484001,1.593998 2.484001,0.666c0,-0.539001 -1.040001,-0.982002 -1.040001,-2.441002l0,-6.715c0.831001,0 0.706001,2.208 0.706001,2.208l0.060997,4.103001c0,0 -0.183998,1.493999 1.645,2.119999c0.645,0.222 2.025002,0.281002 2.09,-0.091c0.065002,-0.372997 -1.661999,-0.926998 -1.677998,-2.084999c-0.010002,-0.706001 0.031998,-1.118 0.031998,-4.186001c0,-3.067997 -0.418999,-4.202 -1.879997,-5.105c4.507999,-0.455997 7.299,-1.551998 8.657997,-4.487c0.106003,0.003002 0.555,-1.370998 0.496002,-1.370998c0.305,-1.108002 0.469997,-2.419003 0.501999,-3.972002c-0.007999,-4.209 -2.057999,-5.698 -2.451,-6.396999c0.580002,-3.187 -0.098,-4.638 -0.411999,-5.135c-1.162003,-0.406 -4.041,1.044001 -5.615002,2.066c-2.563999,-0.736 -7.986,-0.666 -10.018999,0.190001c-3.750999,-2.639999 -5.736,-2.235001 -5.736,-2.235001s-1.283001,2.26 -0.339001,5.565001c-1.233999,1.546 -2.153999,2.639999 -2.153999,5.539c0,1.635 0.195999,3.097 0.636999,4.373001zm11.957001,-33.568001l28.146,16.25l0,32.5l-28.146,16.25l-28.146,-16.25l0,-32.5l28.146,-16.25z"/>
 </g>
</svg>